<?xml version="1.0" encoding="utf-8"?>
<!-- Generator: Adobe Illustrator 24.3.0, SVG Export Plug-In . SVG Version: 6.00 Build 0)  -->
<svg version="1.1" id="Layer_1" xmlns="http://www.w3.org/2000/svg" xmlns:xlink="http://www.w3.org/1999/xlink" x="0px" y="0px"
	 viewBox="0 0 512 512" style="enable-background:new 0 0 512 512;" xml:space="preserve">
<style type="text/css">
	.st0{fill:#FF4729;}
	.st1{fill:#CC2727;}
	.st2{fill:#27C156;}
	.st3{fill:#198936;}
	.st4{fill:#FFFFFF;}
	.st5{fill:#3F0F33;}
</style>
<g>
	<g>
		<path class="st0" d="M338.4,150.1H162c-53.6,27.2-89.7,78.4-89.7,137.2c0,87.2,79.7,157.9,177.9,157.9
			c98.3,0,177.9-70.7,177.9-157.9C428.1,228.6,392,177.3,338.4,150.1z"/>
	</g>
	<g>
		<path class="st1" d="M366.2,167.6c8.2,18.2,12.8,38,12.8,58.8c0,87.2-79.7,157.9-177.9,157.9c-44.4,0-84.9-14.5-116.1-38.3
			c26.3,58.1,90.3,99.2,165.2,99.2c98.3,0,177.9-70.7,177.9-157.9C428.1,239.4,404.1,196.5,366.2,167.6z"/>
	</g>
	<g>
		<path class="st2" d="M334.7,148c0,0,17.8-17.4,44.4-13.9c0,0-50.8-35.1-112.5-7c-0.3,0-0.7-0.1-1-0.1
			c-2.5-26.2-8.7-55.1-16.8-56.4c-7.5-1.2-14.5,0.5-19.6,2.4c-3.9,1.5-5.8,6.2-3.5,9.6c6.8,9.8,11,27.6,13.7,44.4
			c-0.4,0.1-0.8,0.1-1.2,0.2c-61.9-28.5-112.9,6.8-112.9,6.8c26.6-3.5,44.4,13.9,44.4,13.9c-27.2,12.1-41.2,51.4-41.2,51.4
			s37.4-26.1,78.3-29.8c-11.7,11.8-26.6,29.8-30.9,48.6c0,0,62.5-28.1,74.3-22.8c0,0,66.8,32.9,78,42c0,0-1.8-31.7-33.3-67.3
			c45.8,4.3,84.1,22.1,84.1,22.1S361.8,160.2,334.7,148z M206.7,169.6L206.7,169.6L206.7,169.6L206.7,169.6z"/>
	</g>
	<g>
		<path class="st3" d="M240.7,72.6c0,0,9.8,34.9,11.4,62.6s-2,37.9-2,37.9s9.7-1.3,13.1-11c3.5-9.7-2-78.6-13.1-89.5
			C250.1,72.6,240.7,72.6,240.7,72.6z"/>
	</g>
	<g>
		<path class="st3" d="M334.7,148c0,0,17.8-17.4,44.4-13.9c0,0-50.8-35.1-112.5-7c-0.2,0-0.4,0-0.7-0.1c1.1,17.6,0.6,44.8-12.2,42.4
			c-9.4-1.8-13.9-17.7-16.1-33.3c-15,1.7-58.7,21.7-58.7,21.7c39.8-6.1,59.9,4.2,59.9,4.2c-12.5,5.3-28.9,30.3-34.1,38.7
			c-1.1,1.7-1.7,2.7-1.7,2.7l1.5,2.8c18.1-6.9,39.2-13.8,45.6-10.9c0,0,66.8,32.9,78,42c0,0-1.8-31.7-33.3-67.3
			c45.8,4.3,77.4,26.4,77.4,26.4S361.8,160.2,334.7,148z"/>
	</g>
	<g>
		<path class="st4" d="M114.2,312.9c-3.6,0-6.8-2.7-7.2-6.4c-3.1-24.4,1.2-49.3,12.4-71.9c1.8-3.6,6.2-5.1,9.8-3.3
			c3.6,1.8,5.1,6.2,3.3,9.8c-10,20-13.8,42-11,63.5c0.5,4-2.3,7.7-6.3,8.2C114.9,312.8,114.6,312.9,114.2,312.9z"/>
	</g>
	<g>
		<path class="st5" d="M376.4,205.5c-1.4,0-2.7-0.4-3.8-1.3c-0.3-0.3-31.6-25-76.4-28.4c-3.4-0.3-5.9-3.2-5.6-6.5
			c0.3-3.4,3.2-5.9,6.5-5.6c27.1,2.1,49.4,11.2,64.1,19c-6.6-10.8-16.4-23.4-29-29c-1.8-0.8-3.2-2.5-3.5-4.5c-0.4-2,0.3-4,1.7-5.4
			c0.6-0.6,10.2-9.8,26-14c-19.4-7.3-51.7-13.6-88.3,3.5c-3.1,1.4-6.7,0.1-8.1-2.9s-0.1-6.7,2.9-8.1c64.6-30.2,117.4,5.5,119.6,7
			c2.3,1.6,3.2,4.6,2.2,7.2c-1,2.6-3.7,4.2-6.5,3.9c-14.1-1.8-25.6,3.1-32.4,7.2c23.5,16.1,35.7,48.4,36.3,50c1,2.6,0.1,5.5-2.2,7.1
			C378.9,205.1,377.6,205.5,376.4,205.5z"/>
	</g>
	<g>
		<path class="st5" d="M128.4,205.5c-1.3,0-2.6-0.4-3.7-1.3c-2.1-1.6-2.9-4.4-2-6.9c0.5-1.5,12.2-33.7,35.5-49.9
			c-6.8-4.1-18.2-9.8-33.6-13.2c-2.4-0.5-4.3-2.5-4.7-5c-0.4-2.5,0.8-4.9,2.9-6.2c2.2-1.3,54.1-31.1,118.5-1
			c3.1,1.4,4.4,5.1,2.9,8.1c-1.4,3.1-5.1,4.4-8.1,2.9c-39.1-18.2-73.5-12.1-92.2-5.8c18.9,6.9,29.1,15.7,29.6,16.1
			c1.6,1.4,2.3,3.4,2,5.5s-1.6,3.8-3.5,4.7c-13.2,5.9-23.1,19.2-29.5,30.3c15.2-8,38.6-18.1,63.6-20.4c3.4-0.3,6.3,2.2,6.6,5.5
			c0.3,3.4-2.2,6.3-5.5,6.6c-38.7,3.5-75,28.5-75.4,28.7C130.9,205.2,129.7,205.5,128.4,205.5z"/>
	</g>
	<g>
		<path class="st5" d="M250.2,451.3c-101.5,0-184-73.6-184-164c0-58.8,35.7-113.5,93-142.6c3-1.5,6.7-0.3,8.2,2.7s0.3,6.7-2.7,8.2
			c-53.3,27-86.4,77.5-86.4,131.7c0,83.7,77.1,151.8,171.8,151.8S422,371,422,287.3c0-54.2-33.1-104.7-86.4-131.7
			c-3-1.5-4.2-5.2-2.7-8.2s5.2-4.2,8.2-2.7c57.4,29.1,93,83.8,93,142.6C434.2,377.7,351.6,451.3,250.2,451.3z"/>
	</g>
	<g>
		<path class="st5" d="M266,91.3c-4.2-17.3-9.2-25.5-16.2-26.6c-8.9-1.5-17.3,0.7-22.7,2.7c-3.8,1.4-6.7,4.5-7.9,8.3
			c-1.1,3.6-0.6,7.4,1.5,10.4c11.9,17.3,16.2,66.1,16.8,83.4c0,1.5,0.7,3,1.8,4.1c2.5,2.6,7.7,5.6,14.1,5.6c4.2,0,9-1.3,14-5
			C278.4,166.1,270,107.9,266,91.3z M259.5,164.9c-4.5,3-8,2.2-10,1.2c-0.7-13.2-4.2-65.8-18.6-86.6c0-0.1,0.2-0.5,0.5-0.6
			c3.9-1.5,9.8-3.1,16-2.2C256.6,84.1,264.2,153.5,259.5,164.9z"/>
	</g>
	<g>
		<path class="st5" d="M328.2,243.5c-1.4,0-2.7-0.5-3.8-1.4c-8.8-7.1-58.5-32.2-76.9-41.2c-6.1-2.1-40.8,10.1-69.2,22.9
			c-2.1,0.9-4.6,0.6-6.4-0.8c-1.8-1.5-2.6-3.8-2.1-6.1c4.6-20.2,20.3-39.2,32.5-51.5c2.4-2.4,6.2-2.4,8.6,0c2.4,2.4,2.4,6.2,0,8.6
			c-8.4,8.5-18.6,20.3-24.8,33.1c22.5-9.5,55.8-21.9,66.4-17.1c5.6,2.8,44.8,22.1,66.6,34.7c-3.5-12-11.5-30.7-29.2-50.7
			c-2.2-2.5-2-6.4,0.5-8.6c2.5-2.2,6.4-2,8.6,0.5c32.7,36.9,35,69.9,35.1,71.3c0.1,2.4-1.2,4.7-3.3,5.8
			C330.1,243.2,329.1,243.5,328.2,243.5z"/>
	</g>
</g>
</svg>
